# xmcd
#
# Track frame offsets:
# 150
# 17740
# 33018
# 51195
# 68401
# 87278
# 115373
# 138362
# 168127
# 186119
# 209978
# 228582
# 244628
#
# Disc length: 3441 seconds
#
# Revision: 1
# Processed by: cddbd v1.5.2PL0 Copyright (c) Steve Scherf et al.
# Submitted via: CedeCatalogueitor 2.6.0.6 http://personales.ya.com/cdcatalogueitor
#
DISCID=ab0d6f0d
DTITLE=Ry Cooder - Broadcast From The Plant
DYEAR=1974
DGENRE=
TTITLE0=Police Dog Blues
TTITLE1=F. D. R. In Trinidad
TTITLE2=If Walls Could Talk
TTITLE3=Tamp 'Em Up Solid
TTITLE4=Ax Sweet Mama
TTITLE5=Billy The Kid
TTITLE6=Vigilante Man
TTITLE7=How Can A Poor Man Stand Such Times And Live
TTITLE8=Tattler
TTITLE9=Comin' In On A Wing And A Prayer
TTITLE10=Alimony
TTITLE11=Teardrops Will Fall
TTITLE12=I'm A Pilgrim
EXTD=
EXTT0=
EXTT1=
EXTT2=
EXTT3=
EXTT4=
EXTT5=
EXTT6=
EXTT7=
EXTT8=
EXTT9=
EXTT10=
EXTT11=
EXTT12=
PLAYORDER=
